<svg viewBox="-262.5 -262.5 525.0 525.0" xmlns="http://www.w3.org/2000/svg">
	<circle cx="0" cy="0" r="250" stroke="black" fill="white" stroke-width="1" />
	<polygon points="5.399070275040703,219.93374011316493 5.889894845498949,239.92771648708901 11.776241838580324,239.71090948924137 10.794888352031963,219.73500036513792" style="fill:black;" />
	<polygon points="26.930348543827563,218.34549761171618 29.378562047811887,238.1950883036904 35.21531386928682,237.40236239154746 32.280704380179586,217.61883219225183" style="fill:black;" />
	<polygon points="32.280704380179586,217.61883219225183 35.21531386928682,237.40236239154746 41.030853302472295,236.46663417334588 37.61161552726627,216.76108132556706" style="fill:black;" />
	<polygon points="37.61161552726627,216.76108132556706 41.030853302472295,236.46663417334588 46.82167728387078,235.3884672967753 42.91987084354822,215.7727616887107" style="fill:black;" />
	<polygon points="58.676806644477644,212.03073447499676 64.01106179397561,231.30625579090557 69.66832254107096,229.6656805757301 63.862628995981716,210.52687386108593" style="fill:black;" />
	<polygon points="74.11576774628841,207.13969434026458 80.85356481413281,225.970575643925 86.37480876839714,223.91827172033734 79.17690803769739,205.25841574364256" style="fill:black;" />
	<polygon points="84.19035512031975,203.25349715248308 91.84402376762155,221.73108780270883 97.25791536119756,219.41034136884736 89.15308908109778,201.12614625477676" style="fill:black;" />
	<polygon points="89.15308908109778,201.12614625477676 97.25791536119756,219.41034136884736 102.6132224232677,216.9574303496264 94.06212055466206,198.87764448715754" style="fill:black;" />
	<polygon points="94.06212055466206,198.87764448715754 102.6132224232677,216.9574303496264 107.90671911710557,214.3738322869237 98.91449252401344,196.50934626301338" style="fill:black;" />
	<polygon points="126.67780211192597,179.86865889334842 138.19396594028288,196.2203551563801 142.96783307818401,192.7698075553548 131.05384698833535,176.7056569257419" style="fill:black;" />
	<polygon points="131.05384698833535,176.7056569257419 142.96783307818401,192.7698075553548 147.65558173935042,189.20314263038549 135.3509499277379,173.43621407785338" style="fill:black;" />
	<polygon points="143.69802544983088,166.58594623142662 156.7614823089064,181.7301231615563 161.1741491632844,177.8282700851902 147.74297006634404,163.00924757809102" style="fill:black;" />
	<polygon points="155.56349186104046,155.56349186104046 169.7056274847714,169.7056274847714 173.81929990835206,165.48973073689606 159.33435824932272,151.69891984215474" style="fill:black;" />
	<polygon points="166.58594623142662,143.6980254498309 181.7301231615563,156.76148230890644 185.52250880705685,152.25438819927493 170.0622997398021,139.566522516002" style="fill:black;" />
	<polygon points="170.0622997398021,139.566522516002 185.52250880705685,152.25438819927493 189.20314263038549,147.65558173935042 173.43621407785338,135.3509499277379" style="fill:black;" />
	<polygon points="176.70565692574186,131.05384698833535 192.76980755535476,142.96783307818404 196.2203551563801,138.19396594028288 179.86865889334842,126.67780211192597" style="fill:black;" />
	<polygon points="179.86865889334842,126.67780211192597 196.2203551563801,138.19396594028288 199.55270695261086,133.33685592470454 182.92331470655995,122.2254512643125" style="fill:black;" />
	<polygon points="182.92331470655995,122.2254512643125 199.55270695261086,133.33685592470454 202.76485565992968,128.39942877290335 185.86778435493554,117.6994763751614" style="fill:black;" />
	<polygon points="191.4191380439165,108.4376022905525 208.8208778660907,118.29556613514818 211.66110344360519,113.13521683823947 194.02267815663808,103.70728210171951" style="fill:black;" />
	<polygon points="205.25841574364256,79.17690803769742 223.91827172033732,86.37480876839719 225.970575643925,80.85356481413281 207.13969434026458,74.11576774628841" style="fill:black;" />
	<polygon points="208.89619973046806,69.00998288775615 227.8867633423288,75.28361769573398 229.66568057573014,69.66832254107096 210.52687386108596,63.862628995981716" style="fill:black;" />
	<polygon points="212.03073447499676,58.67680664447765 231.30625579090557,64.01106179397561 232.80750076669057,58.315243176783355 213.40687570279968,53.45563957871808" style="fill:black;" />
	<polygon points="213.40687570279968,53.45563957871808 232.80750076669057,58.315243176783355 234.16851120924684,52.584297637648746 214.6544686084763,48.20227283451135" style="fill:black;" />
	<polygon points="215.7727616887107,42.91987084354823 235.3884672967753,46.8216772838708 236.46663417334588,41.03085330247232 216.76108132556706,37.611615527266295" style="fill:black;" />
	<polygon points="216.76108132556706,37.611615527266295 236.46663417334588,41.03085330247232 237.40236239154746,35.21531386928682 217.61883219225183,32.280704380179586" style="fill:black;" />
	<polygon points="218.34549761171618,26.93034854382758 238.1950883036904,29.378562047811908 238.84433440132725,23.524113679094583 218.9406398678833,21.56377087250337" style="fill:black;" />
	<polygon points="219.40390046931185,16.18420399192684 239.34970960288564,17.655495263920187 239.71090948924137,11.77624183858035 219.73500036513792,10.794888352031988" style="fill:black;" />
	<polygon points="219.73500036513792,10.794888352031988 239.71090948924137,11.77624183858035 239.92771648708901,5.889894845498944 219.93374011316493,5.399070275040698" style="fill:black;" />
	<polygon points="219.93374011316493,-5.399070275040671 239.92771648708901,-5.889894845498914 239.71090948924137,-11.776241838580322 219.73500036513792,-10.794888352031961" style="fill:black;" />
	<polygon points="219.40390046931185,-16.18420399192681 239.34970960288564,-17.65549526392016 238.84433440132727,-23.524113679094555 218.94063986788333,-21.56377087250334" style="fill:black;" />
	<polygon points="218.94063986788333,-21.56377087250334 238.84433440132727,-23.524113679094555 238.1950883036904,-29.378562047811876 218.34549761171618,-26.930348543827552" style="fill:black;" />
	<polygon points="214.6544686084763,-48.20227283451133 234.16851120924684,-52.58429763764872 232.80750076669057,-58.315243176783326 213.40687570279968,-53.45563957871805" style="fill:black;" />
	<polygon points="213.40687570279968,-53.45563957871805 232.80750076669057,-58.315243176783326 231.30625579090557,-64.0110617939756 212.03073447499676,-58.67680664447763" style="fill:black;" />
	<polygon points="212.03073447499676,-58.67680664447763 231.30625579090557,-64.0110617939756 229.66568057573014,-69.66832254107092 210.52687386108596,-63.86262899598167" style="fill:black;" />
	<polygon points="210.52687386108596,-63.86262899598167 229.66568057573014,-69.66832254107092 227.8867633423288,-75.28361769573394 208.89619973046806,-69.00998288775611" style="fill:black;" />
	<polygon points="208.89619973046806,-69.00998288775611 227.8867633423288,-75.28361769573394 225.970575643925,-80.85356481413278 207.13969434026458,-74.11576774628838" style="fill:black;" />
	<polygon points="205.25841574364256,-79.1769080376974 223.91827172033732,-86.37480876839716 221.73108780270883,-91.84402376762154 203.25349715248308,-84.19035512031974" style="fill:black;" />
	<polygon points="203.25349715248308,-84.19035512031974 221.73108780270883,-91.84402376762154 219.41034136884736,-97.25791536119755 201.12614625477676,-89.15308908109775" style="fill:black;" />
	<polygon points="198.87764448715757,-94.06212055466202 216.95743034962643,-102.61322242326764 214.37383228692366,-107.90671911710561 196.50934626301336,-98.91449252401347" style="fill:black;" />
	<polygon points="196.50934626301336,-98.91449252401347 214.37383228692366,-107.90671911710561 211.6611034436052,-113.13521683823944 194.0226781566381,-103.7072821017195" style="fill:black;" />
	<polygon points="194.0226781566381,-103.7072821017195 211.6611034436052,-113.13521683823944 208.82087786609074,-118.29556613514815 191.41913804391652,-108.43760229055248" style="fill:black;" />
	<polygon points="191.41913804391652,-108.43760229055248 208.82087786609074,-118.29556613514815 205.8548664000653,-123.38465860637316 188.70029420005986,-113.10260372250875" style="fill:black;" />
	<polygon points="185.8677843549356,-117.69947637516135 202.76485565992974,-128.3994287729033 199.5527069526109,-133.33685592470448 182.92331470655998,-122.22545126431243" style="fill:black;" />
	<polygon points="179.86865889334842,-126.67780211192597 196.2203551563801,-138.19396594028288 192.7698075553548,-142.96783307818401 176.7056569257419,-131.05384698833535" style="fill:black;" />
	<polygon points="176.7056569257419,-131.05384698833535 192.7698075553548,-142.96783307818401 189.2031426303855,-147.6555817393504 173.4362140778534,-135.35094992773787" style="fill:black;" />
	<polygon points="173.4362140778534,-135.35094992773787 189.2031426303855,-147.6555817393504 185.5225088070569,-152.2543881992749 170.06229973980217,-139.56652251600198" style="fill:black;" />
	<polygon points="166.58594623142662,-143.69802544983085 181.73012316155632,-156.76148230890638 177.82827008519016,-161.17414916328443 163.009247578091,-147.74297006634407" style="fill:black;" />
	<polygon points="151.69891984215474,-159.3343582493227 165.4897307368961,-173.81929990835204 161.17414916328445,-177.82827008519013 147.74297006634407,-163.00924757809096" style="fill:black;" />
	<polygon points="131.05384698833535,-176.70565692574186 142.96783307818404,-192.76980755535476 138.1939659402829,-196.22035515638007 126.677802111926,-179.8686588933484" style="fill:black;" />
	<polygon points="126.677802111926,-179.8686588933484 138.1939659402829,-196.22035515638007 133.33685592470454,-199.5527069526109 122.22545126431248,-182.92331470655998" style="fill:black;" />
	<polygon points="117.69947637516137,-185.86778435493557 128.39942877290332,-202.7648556599297 123.38465860637322,-205.85486640006528 113.10260372250879,-188.70029420005983" style="fill:black;" />
	<polygon points="113.10260372250879,-188.70029420005983 123.38465860637322,-205.85486640006528 118.29556613514819,-208.8208778660907 108.43760229055252,-191.4191380439165" style="fill:black;" />
	<polygon points="94.06212055466204,-198.87764448715754 102.61322242326769,-216.9574303496264 97.25791536119758,-219.41034136884736 89.15308908109778,-201.12614625477676" style="fill:black;" />
	<polygon points="89.15308908109778,-201.12614625477676 97.25791536119758,-219.41034136884736 91.84402376762158,-221.73108780270883 84.19035512031978,-203.25349715248308" style="fill:black;" />
	<polygon points="84.19035512031978,-203.25349715248308 91.84402376762158,-221.73108780270883 86.3748087683972,-223.91827172033732 79.17690803769743,-205.25841574364256" style="fill:black;" />
	<polygon points="79.17690803769743,-205.25841574364256 86.3748087683972,-223.91827172033732 80.85356481413288,-225.97057564392497 74.11576774628847,-207.13969434026455" style="fill:black;" />
	<polygon points="63.86262899598172,-210.52687386108593 69.66832254107098,-229.6656805757301 64.01106179397563,-231.30625579090557 58.676806644477665,-212.03073447499676" style="fill:black;" />
	<polygon points="58.676806644477665,-212.03073447499676 64.01106179397563,-231.30625579090557 58.315243176783376,-232.80750076669057 53.45563957871809,-213.40687570279968" style="fill:black;" />
	<polygon points="53.45563957871809,-213.40687570279968 58.315243176783376,-232.80750076669057 52.58429763764881,-234.16851120924684 48.20227283451141,-214.65446860847626" style="fill:black;" />
	<polygon points="37.61161552726627,-216.76108132556706 41.030853302472295,-236.46663417334588 35.21531386928683,-237.40236239154746 32.2807043801796,-217.61883219225183" style="fill:black;" />
	<polygon points="32.2807043801796,-217.61883219225183 35.21531386928683,-237.40236239154746 29.378562047811922,-238.1950883036904 26.930348543827595,-218.34549761171618" style="fill:black;" />
	<polygon points="10.794888352031952,-219.73500036513792 11.776241838580312,-239.71090948924137 5.889894845498958,-239.92771648708901 5.399070275040712,-219.93374011316493" style="fill:black;" />
	<polygon points="2.694222958124177e-14,-220.0 2.939152317953648e-14,-240.0 -5.889894845498899,-239.92771648708901 -5.399070275040658,-219.93374011316493" style="fill:black;" />
	<polygon points="-5.399070275040658,-219.93374011316493 -5.889894845498899,-239.92771648708901 -11.776241838580253,-239.71090948924137 -10.794888352031899,-219.73500036513792" style="fill:black;" />
	<polygon points="-16.18420399192685,-219.40390046931185 -17.655495263920198,-239.34970960288564 -23.52411367909454,-238.84433440132727 -21.56377087250333,-218.94063986788333" style="fill:black;" />
	<polygon points="-32.28070438017955,-217.61883219225183 -35.21531386928678,-237.40236239154746 -41.03085330247223,-236.4666341733459 -37.61161552726621,-216.7610813255671" style="fill:black;" />
	<polygon points="-53.45563957871804,-213.40687570279968 -58.31524317678331,-232.80750076669057 -64.01106179397559,-231.3062557909056 -58.676806644477615,-212.0307344749968" style="fill:black;" />
	<polygon points="-63.862628995981666,-210.52687386108596 -69.6683225410709,-229.66568057573014 -75.28361769573388,-227.88676334232883 -69.00998288775607,-208.89619973046808" style="fill:black;" />
	<polygon points="-79.17690803769739,-205.25841574364256 -86.37480876839714,-223.91827172033734 -91.84402376762152,-221.73108780270886 -84.19035512031972,-203.2534971524831" style="fill:black;" />
	<polygon points="-89.15308908109773,-201.12614625477676 -97.25791536119753,-219.41034136884736 -102.61322242326763,-216.95743034962643 -94.062120554662,-198.87764448715757" style="fill:black;" />
	<polygon points="-98.91449252401347,-196.50934626301338 -107.9067191171056,-214.3738322869237 -113.13521683823943,-211.6611034436052 -103.70728210171949,-194.0226781566381" style="fill:black;" />
	<polygon points="-113.10260372250875,-188.70029420005986 -123.38465860637316,-205.8548664000653 -128.39942877290326,-202.76485565992974 -117.69947637516132,-185.8677843549356" style="fill:black;" />
	<polygon points="-117.69947637516132,-185.8677843549356 -128.39942877290326,-202.76485565992974 -133.33685592470448,-199.55270695261092 -122.22545126431243,-182.92331470656" style="fill:black;" />
	<polygon points="-122.22545126431243,-182.92331470656 -133.33685592470448,-199.55270695261092 -138.19396594028288,-196.2203551563801 -126.67780211192597,-179.86865889334842" style="fill:black;" />
	<polygon points="-131.05384698833532,-176.7056569257419 -142.967833078184,-192.7698075553548 -147.6555817393504,-189.2031426303855 -135.35094992773787,-173.4362140778534" style="fill:black;" />
	<polygon points="-135.35094992773787,-173.4362140778534 -147.6555817393504,-189.2031426303855 -152.25438819927487,-185.5225088070569 -139.56652251600195,-170.06229973980217" style="fill:black;" />
	<polygon points="-139.56652251600195,-170.06229973980217 -152.25438819927487,-185.5225088070569 -156.76148230890638,-181.73012316155635 -143.69802544983085,-166.58594623142665" style="fill:black;" />
	<polygon points="-147.74297006634407,-163.009247578091 -161.17414916328443,-177.82827008519018 -165.48973073689604,-173.8192999083521 -151.6989198421547,-159.33435824932275" style="fill:black;" />
	<polygon points="-151.6989198421547,-159.33435824932275 -165.48973073689604,-173.8192999083521 -169.70562748477138,-169.70562748477144 -155.56349186104043,-155.5634918610405" style="fill:black;" />
	<polygon points="-163.00924757809096,-147.7429700663441 -177.82827008519013,-161.17414916328448 -181.7301231615562,-156.7614823089065 -166.58594623142653,-143.69802544983096" style="fill:black;" />
	<polygon points="-166.58594623142653,-143.69802544983096 -181.7301231615562,-156.7614823089065 -185.5225088070568,-152.254388199275 -170.06229973980206,-139.5665225160021" style="fill:black;" />
	<polygon points="-170.06229973980206,-139.5665225160021 -185.5225088070568,-152.254388199275 -189.2031426303854,-147.65558173935054 -173.4362140778533,-135.350949927738" style="fill:black;" />
	<polygon points="-173.4362140778533,-135.350949927738 -189.2031426303854,-147.65558173935054 -192.76980755535482,-142.96783307818396 -176.70565692574192,-131.0538469883353" style="fill:black;" />
	<polygon points="-179.86865889334845,-126.67780211192596 -196.22035515638012,-138.19396594028285 -199.55270695261086,-133.33685592470454 -182.92331470655995,-122.22545126431248" style="fill:black;" />
	<polygon points="-182.92331470655995,-122.22545126431248 -199.55270695261086,-133.33685592470454 -202.7648556599297,-128.39942877290335 -185.86778435493557,-117.6994763751614" style="fill:black;" />
	<polygon points="-185.86778435493557,-117.6994763751614 -202.7648556599297,-128.39942877290335 -205.85486640006528,-123.38465860637322 -188.70029420005983,-113.10260372250879" style="fill:black;" />
	<polygon points="-188.70029420005983,-113.10260372250879 -205.85486640006528,-123.38465860637322 -208.8208778660907,-118.2955661351482 -191.4191380439165,-108.43760229055252" style="fill:black;" />
	<polygon points="-191.4191380439165,-108.43760229055252 -208.8208778660907,-118.2955661351482 -211.66110344360519,-113.13521683823949 -194.02267815663808,-103.70728210171953" style="fill:black;" />
	<polygon points="-194.02267815663808,-103.70728210171953 -211.66110344360519,-113.13521683823949 -214.37383228692366,-107.90671911710567 -196.50934626301336,-98.91449252401353" style="fill:black;" />
	<polygon points="-198.87764448715748,-94.06212055466214 -216.95743034962635,-102.6132224232678 -219.4103413688473,-97.25791536119769 -201.1261462547767,-89.15308908109787" style="fill:black;" />
	<polygon points="-205.25841574364256,-79.17690803769734 -223.91827172033734,-86.3748087683971 -225.970575643925,-80.85356481413278 -207.13969434026458,-74.11576774628838" style="fill:black;" />
	<polygon points="-207.13969434026458,-74.11576774628838 -225.970575643925,-80.85356481413278 -227.8867633423288,-75.28361769573395 -208.89619973046806,-69.00998288775612" style="fill:black;" />
	<polygon points="-212.03073447499676,-58.67680664447768 -231.30625579090557,-64.01106179397564 -232.80750076669057,-58.31524317678339 -213.40687570279968,-53.455639578718106" style="fill:black;" />
	<polygon points="-213.40687570279968,-53.455639578718106 -232.80750076669057,-58.31524317678339 -234.16851120924684,-52.584297637648824 -214.65446860847626,-48.202272834511426" style="fill:black;" />
	<polygon points="-215.77276168871066,-42.9198708435483 -235.38846729677527,-46.821677283870876 -236.46663417334588,-41.03085330247241 -216.76108132556703,-37.61161552726637" style="fill:black;" />
	<polygon points="-217.6188321922518,-32.28070438017971 -237.40236239154743,-35.21531386928695 -238.19508830369043,-29.37856204781183 -218.3454976117162,-26.93034854382751" style="fill:black;" />
	<polygon points="-219.73500036513792,-10.794888352031967 -239.71090948924137,-11.776241838580328 -239.92771648708901,-5.889894845498973 -219.93374011316493,-5.399070275040725" style="fill:black;" />
	<polygon points="-219.93374011316493,-5.399070275040725 -239.92771648708901,-5.889894845498973 -240.0,-4.408728476930471e-14 -220.0,-4.0413344371862656e-14" style="fill:black;" />
	<polygon points="-218.3454976117162,26.93034854382743 -238.19508830369043,29.378562047811744 -237.40236239154743,35.21531386928687 -217.6188321922518,32.28070438017963" style="fill:black;" />
	<polygon points="-217.6188321922518,32.28070438017963 -237.40236239154743,35.21531386928687 -236.46663417334588,41.030853302472316 -216.76108132556706,37.611615527266295" style="fill:black;" />
	<polygon points="-216.76108132556706,37.611615527266295 -236.46663417334588,41.030853302472316 -235.3884672967753,46.82167728387079 -215.7727616887107,42.919870843548225" style="fill:black;" />
	<polygon points="-214.6544686084763,48.20227283451134 -234.16851120924684,52.58429763764874 -232.80750076669057,58.315243176783305 -213.40687570279968,53.45563957871803" style="fill:black;" />
	<polygon points="-212.0307344749968,58.6768066444776 -231.3062557909056,64.01106179397557 -229.66568057573014,69.66832254107089 -210.52687386108596,63.86262899598165" style="fill:black;" />
	<polygon points="-208.89619973046808,69.00998288775605 -227.88676334232883,75.28361769573387 -225.97057564392503,80.85356481413271 -207.1396943402646,74.11576774628831" style="fill:black;" />
	<polygon points="-205.2584157436426,79.17690803769727 -223.91827172033737,86.37480876839703 -221.7310878027088,91.84402376762161 -203.25349715248305,84.19035512031981" style="fill:black;" />
	<polygon points="-203.25349715248305,84.19035512031981 -221.7310878027088,91.84402376762161 -219.41034136884733,97.2579153611976 -201.12614625477673,89.1530890810978" style="fill:black;" />
	<polygon points="-201.12614625477673,89.1530890810978 -219.41034136884733,97.2579153611976 -216.9574303496264,102.61322242326771 -198.87764448715754,94.06212055466207" style="fill:black;" />
	<polygon points="-198.87764448715754,94.06212055466207 -216.9574303496264,102.61322242326771 -214.3738322869237,107.90671911710558 -196.50934626301338,98.91449252401345" style="fill:black;" />
	<polygon points="-196.50934626301338,98.91449252401345 -214.3738322869237,107.90671911710558 -211.6611034436052,113.13521683823942 -194.0226781566381,103.70728210171947" style="fill:black;" />
	<polygon points="-188.7002942000599,113.10260372250875 -205.85486640006533,123.38465860637316 -202.76485565992974,128.39942877290326 -185.8677843549356,117.69947637516132" style="fill:black;" />
	<polygon points="-182.92331470656,122.22545126431241 -199.55270695261092,133.33685592470445 -196.22035515638015,138.19396594028277 -179.86865889334845,126.67780211192587" style="fill:black;" />
	<polygon points="-166.58594623142662,143.69802544983088 -181.7301231615563,156.7614823089064 -177.82827008519018,161.1741491632844 -163.009247578091,147.74297006634404" style="fill:black;" />
	<polygon points="-155.5634918610405,155.5634918610404 -169.70562748477144,169.70562748477136 -165.48973073689612,173.819299908352 -151.69891984215477,159.33435824932266" style="fill:black;" />
	<polygon points="-151.69891984215477,159.33435824932266 -165.48973073689612,173.819299908352 -161.17414916328448,177.82827008519013 -147.7429700663441,163.00924757809096" style="fill:black;" />
	<polygon points="-147.7429700663441,163.00924757809096 -161.17414916328448,177.82827008519013 -156.7614823089065,181.7301231615562 -143.69802544983096,166.58594623142653" style="fill:black;" />
	<polygon points="-143.69802544983096,166.58594623142653 -156.7614823089065,181.7301231615562 -152.254388199275,185.52250880705677 -139.5665225160021,170.06229973980203" style="fill:black;" />
	<polygon points="-139.5665225160021,170.06229973980203 -152.254388199275,185.52250880705677 -147.65558173935057,189.2031426303854 -135.35094992773801,173.4362140778533" style="fill:black;" />
	<polygon points="-135.35094992773801,173.4362140778533 -147.65558173935057,189.2031426303854 -142.967833078184,192.76980755535482 -131.05384698833532,176.70565692574192" style="fill:black;" />
	<polygon points="-131.05384698833532,176.70565692574192 -142.967833078184,192.76980755535482 -138.19396594028285,196.2203551563801 -126.67780211192596,179.86865889334842" style="fill:black;" />
	<polygon points="-126.67780211192596,179.86865889334842 -138.19396594028285,196.2203551563801 -133.33685592470454,199.55270695261086 -122.22545126431248,182.92331470655995" style="fill:black;" />
	<polygon points="-103.70728210171954,194.02267815663805 -113.1352168382395,211.66110344360516 -107.90671911710568,214.37383228692363 -98.91449252401354,196.50934626301333" style="fill:black;" />
	<polygon points="-94.06212055466216,198.87764448715748 -102.61322242326781,216.95743034962635 -97.2579153611977,219.4103413688473 -89.15308908109789,201.1261462547767" style="fill:black;" />
	<polygon points="-89.15308908109789,201.1261462547767 -97.2579153611977,219.4103413688473 -91.84402376762169,221.73108780270877 -84.1903551203199,203.25349715248302" style="fill:black;" />
	<polygon points="-84.1903551203199,203.25349715248302 -91.84402376762169,221.73108780270877 -86.37480876839712,223.91827172033734 -79.17690803769736,205.25841574364256" style="fill:black;" />
	<polygon points="-79.17690803769736,205.25841574364256 -86.37480876839712,223.91827172033734 -80.8535648141328,225.970575643925 -74.1157677462884,207.13969434026458" style="fill:black;" />
	<polygon points="-58.676806644477686,212.03073447499676 -64.01106179397566,231.30625579090557 -58.315243176783405,232.80750076669057 -53.45563957871812,213.40687570279968" style="fill:black;" />
	<polygon points="-53.45563957871812,213.40687570279968 -58.315243176783405,232.80750076669057 -52.58429763764884,234.16851120924684 -48.20227283451143,214.65446860847626" style="fill:black;" />
	<polygon points="-42.91987084354832,215.77276168871066 -46.82167728387089,235.38846729677527 -41.03085330247242,236.46663417334588 -37.61161552726639,216.76108132556703" style="fill:black;" />
	<polygon points="11.65093989741963,189.64244145102833 12.877354623463802,209.60480370903133 23.146663531715443,208.72046370049478 20.94221938583778,188.84232430044764" style="fill:black;" />
	<polygon points="30.183047233433676,187.5872694499931 33.360210100110905,207.33329781315027 43.493389000365895,205.4466478511218 39.351161476521526,185.88030043672924" style="fill:black;" />
	<polygon points="48.42447532485777,183.7255294985219 53.52178851694806,203.06505891941893 63.4212493570379,200.19426847438072 57.38113037065334,181.12814766729684" style="fill:black;" />
	<polygon points="66.19954924739257,178.09441226338924 73.16792285238125,196.84119250164073 82.7383284128201,193.01390885491213 74.85848761159914,174.63163182111097" style="fill:black;" />
	<polygon points="83.33708532232025,170.74814848185122 92.1094100930908,188.7216377957303 101.25859213661577,183.9747197810354 91.61491669503332,166.45331789712725" style="fill:black;" />
	<polygon points="99.6720397089091,161.75748669000038 110.16383336247848,178.7845905521057 118.80368026455875,173.1637535848553 107.4890440488865,156.6719675291548" style="fill:black;" />
	<polygon points="115.04709786682186,151.20901187568788 127.15731869490837,167.12574996786554 135.2046240068562,160.6851257807164 122.32799314906036,145.3817804682672" style="fill:black;" />
	<polygon points="129.31418958113608,139.20431161775844 142.92620953704514,153.8573970512067 150.3034733096019,146.65901237588432 135.98885680392553,132.69148738770485" style="fill:black;" />
	<polygon points="142.33591495945726,125.85899774213264 157.31864284992645,139.10731329393607 163.95481800013985,131.22049250990116 148.34007342869796,118.72330274705342" style="fill:black;" />
	<polygon points="153.986867667993,111.30159291672338 170.1960116330449,123.01755006585216 176.02718816651597,114.51824756862976 159.26269405541922,103.61174780018882" style="fill:black;" />
	<polygon points="164.15484266310148,95.67229290788634 181.4342997855332,105.74306058240069 186.40432028459932,96.7131293012304 168.65152787654225,87.5023550820656" style="fill:black;" />
	<polygon points="172.74191678719924,79.12161641855108 190.9252764490097,87.45020762050383 194.98627689937527,77.97661072988589 176.41615528991096,70.55026685084914" style="fill:black;" />
	<polygon points="179.66539182229906,61.80895551082997 198.57753832990946,68.31516135407523 201.6904090772688,58.48913477086114 182.4817986889575,52.918740983160085" style="fill:black;" />
	<polygon points="184.8585909190564,43.90104057332754 204.3173899631676,48.52220273894097 206.45215236055543,38.43837647057962 186.79004261193109,34.7775787114768" style="fill:black;" />
	<polygon points="188.2715007312782,25.570334616353982 208.0895534398338,28.261948786496507 209.22564855838337,18.017435592332376 189.29939631472783,16.301489345443578" style="fill:black;" />
	<polygon points="189.8712530717864,6.993372358858208 209.8577007635534,7.729516817685388 209.98418738622036,-2.577023040001163 189.98569334943747,-2.3315922742867663" style="fill:black;" />
	<polygon points="189.64244145102833,-11.65093989741962 209.60480370903133,-12.877354623463791 208.72046370049478,-23.146663531715443 188.84232430044764,-20.94221938583778" style="fill:black;" />
	<polygon points="187.5872694499931,-30.183047233433644 207.33329781315027,-33.36021010011087 205.4466478511218,-43.49338900036587 185.88030043672924,-39.351161476521504" style="fill:black;" />
	<polygon points="183.7255294985219,-48.42447532485776 203.06505891941893,-53.52178851694805 200.19426847438072,-63.4212493570379 181.12814766729684,-57.38113037065334" style="fill:black;" />
	<polygon points="178.09441226338924,-66.19954924739254 196.84119250164073,-73.16792285238122 193.01390885491213,-82.73832841282008 174.63163182111097,-74.85848761159912" style="fill:black;" />
	<polygon points="170.74814848185125,-83.3370853223202 188.72163779573032,-92.10941009309074 183.9747197810354,-101.25859213661577 166.45331789712725,-91.61491669503332" style="fill:black;" />
	<polygon points="161.75748669000038,-99.67203970890905 178.7845905521057,-110.16383336247843 173.1637535848553,-118.80368026455878 156.67196752915478,-107.48904404888651" style="fill:black;" />
	<polygon points="151.20901187568788,-115.04709786682183 167.12574996786554,-127.15731869490834 160.68512578071642,-135.20462400685616 145.3817804682672,-122.32799314906035" style="fill:black;" />
	<polygon points="139.20431161775844,-129.31418958113608 153.8573970512067,-142.92620953704514 146.65901237588432,-150.3034733096019 132.69148738770485,-135.98885680392553" style="fill:black;" />
	<polygon points="125.85899774213269,-142.33591495945723 139.10731329393613,-157.31864284992642 131.22049250990113,-163.95481800013985 118.72330274705341,-148.34007342869796" style="fill:black;" />
	<polygon points="111.30159291672341,-153.98686766799298 123.01755006585219,-170.1960116330449 114.51824756862973,-176.027188166516 103.61174780018881,-159.26269405541925" style="fill:black;" />
	<polygon points="95.67229290788634,-164.15484266310148 105.74306058240069,-181.4342997855332 96.71312930123045,-186.4043202845993 87.50235508206565,-168.65152787654222" style="fill:black;" />
	<polygon points="79.12161641855106,-172.74191678719924 87.4502076205038,-190.9252764490097 77.97661072988592,-194.98627689937524 70.55026685084917,-176.41615528991093" style="fill:black;" />
	<polygon points="61.80895551083002,-179.66539182229903 68.31516135407529,-198.57753832990946 58.48913477086116,-201.6904090772688 52.918740983160106,-182.4817986889575" style="fill:black;" />
	<polygon points="43.901040573327556,-184.8585909190564 48.52220273894098,-204.3173899631676 38.43837647057959,-206.45215236055543 34.77757871147677,-186.79004261193109" style="fill:black;" />
	<polygon points="25.570334616353993,-188.2715007312782 28.261948786496518,-208.0895534398338 18.017435592332433,-209.22564855838337 16.30148934544363,-189.29939631472783" style="fill:black;" />
	<polygon points="6.993372358858178,-189.8712530717864 7.729516817685354,-209.8577007635534 -2.57702304000115,-209.98418738622036 -2.3315922742867548,-189.98569334943747" style="fill:black;" />
	<polygon points="-11.650939897419567,-189.64244145102833 -12.87735462346373,-209.60480370903133 -23.14666353171543,-208.72046370049478 -20.94221938583777,-188.84232430044764" style="fill:black;" />
	<polygon points="-30.183047233433633,-187.5872694499931 -33.360210100110855,-207.33329781315027 -43.4933890003659,-205.4466478511218 -39.35116147652153,-185.88030043672924" style="fill:black;" />
	<polygon points="-48.424475324857745,-183.72552949852192 -53.521788516948035,-203.06505891941896 -63.42124935703784,-200.19426847438072 -57.38113037065328,-181.12814766729684" style="fill:black;" />
	<polygon points="-66.19954924739257,-178.09441226338924 -73.16792285238125,-196.84119250164073 -82.73832841282007,-193.01390885491213 -74.8584876115991,-174.63163182111097" style="fill:black;" />
	<polygon points="-83.33708532232019,-170.74814848185127 -92.10941009309074,-188.72163779573035 -101.25859213661576,-183.9747197810354 -91.6149166950333,-166.45331789712725" style="fill:black;" />
	<polygon points="-99.67203970890905,-161.7574866900004 -110.16383336247843,-178.78459055210573 -118.80368026455878,-173.1637535848553 -107.48904404888651,-156.6719675291548" style="fill:black;" />
	<polygon points="-115.04709786682183,-151.20901187568788 -127.15731869490834,-167.12574996786554 -135.20462400685616,-160.68512578071642 -122.32799314906035,-145.3817804682672" style="fill:black;" />
	<polygon points="-129.31418958113608,-139.20431161775844 -142.92620953704514,-153.8573970512067 -150.30347330960188,-146.65901237588434 -135.9888568039255,-132.69148738770488" style="fill:black;" />
	<polygon points="-142.33591495945723,-125.85899774213269 -157.3186428499264,-139.10731329393613 -163.95481800013982,-131.22049250990116 -148.34007342869793,-118.72330274705342" style="fill:black;" />
	<polygon points="-153.98686766799298,-111.30159291672342 -170.1960116330449,-123.0175500658522 -176.02718816651594,-114.51824756862983 -159.2626940554192,-103.6117478001889" style="fill:black;" />
	<polygon points="-164.15484266310142,-95.67229290788643 -181.43429978553317,-105.74306058240079 -186.40432028459935,-96.71312930123038 -168.65152787654227,-87.50235508206558" style="fill:black;" />
	<polygon points="-172.74191678719924,-79.12161641855107 -190.9252764490097,-87.45020762050382 -194.98627689937524,-77.97661072988593 -176.41615528991093,-70.55026685084917" style="fill:black;" />
	<polygon points="-179.66539182229903,-61.80895551083003 -198.57753832990946,-68.3151613540753 -201.69040907726878,-58.489134770861256 -182.48179868895747,-52.918740983160184" style="fill:black;" />
	<polygon points="-184.85859091905644,-43.90104057332748 -204.31738996316764,-48.5222027389409 -206.45215236055543,-38.4383764705796 -186.79004261193109,-34.77757871147678" style="fill:black;" />
	<polygon points="-188.2715007312782,-25.57033461635401 -208.0895534398338,-28.261948786496536 -209.22564855838337,-18.017435592332447 -189.29939631472783,-16.301489345443642" style="fill:black;" />
	<polygon points="-189.87125307178638,-6.993372358858273 -209.85770076355337,-7.729516817685459 -209.98418738622036,2.5770230400012304 -189.98569334943747,2.331592274286827" style="fill:black;" />
	<polygon points="-189.64244145102833,11.650939897419638 -209.60480370903133,12.87735462346381 -208.72046370049478,23.146663531715415 -188.84232430044764,20.942219385837756" style="fill:black;" />
	<polygon points="-187.5872694499931,30.183047233433623 -207.33329781315027,33.36021010011085 -205.44664785112184,43.4933890003658 -185.88030043672927,39.35116147652144" style="fill:black;" />
	<polygon points="-183.72552949852192,48.42447532485765 -203.065058919419,53.52178851694793 -200.19426847438072,63.42124935703791 -181.12814766729684,57.381130370653345" style="fill:black;" />
	<polygon points="-178.09441226338924,66.19954924739255 -196.84119250164073,73.16792285238125 -193.01390885491216,82.73832841282005 -174.631631821111,74.8584876115991" style="fill:black;" />
	<polygon points="-170.74814848185127,83.33708532232018 -188.72163779573035,92.10941009309073 -183.97471978103545,101.25859213661566 -166.4533178971273,91.61491669503322" style="fill:black;" />
	<polygon points="-161.75748669000038,99.67203970890913 -178.78459055210567,110.1638333624785 -173.1637535848553,118.80368026455875 -156.6719675291548,107.4890440488865" style="fill:black;" />
	<polygon points="-151.2090118756879,115.04709786682182 -167.12574996786557,127.15731869490831 -160.68512578071642,135.20462400685614 -145.38178046826724,122.32799314906032" style="fill:black;" />
	<polygon points="-139.2043116177585,129.31418958113602 -153.85739705120676,142.92620953704505 -146.65901237588426,150.30347330960194 -132.69148738770483,135.9888568039256" style="fill:black;" />
	<polygon points="-125.85899774213264,142.33591495945728 -139.10731329393607,157.31864284992648 -131.22049250990116,163.95481800013982 -118.72330274705342,148.34007342869793" style="fill:black;" />
	<polygon points="-111.30159291672342,153.98686766799295 -123.0175500658522,170.19601163304486 -114.51824756862983,176.0271881665159 -103.6117478001889,159.26269405541916" style="fill:black;" />
	<polygon points="-95.67229290788644,164.15484266310142 -105.7430605824008,181.43429978553314 -96.7131293012304,186.40432028459932 -87.50235508206559,168.65152787654225" style="fill:black;" />
	<polygon points="-79.12161641855108,172.74191678719924 -87.45020762050383,190.9252764490097 -77.97661072988595,194.98627689937524 -70.55026685084918,176.41615528991093" style="fill:black;" />
	<polygon points="-61.80895551083004,179.66539182229903 -68.31516135407531,198.57753832990946 -58.48913477086127,201.69040907726878 -52.9187409831602,182.48179868895747" style="fill:black;" />
	<polygon points="-43.90104057332749,184.85859091905644 -48.52220273894091,204.31738996316764 -38.43837647057961,206.45215236055543 -34.77757871147679,186.79004261193109" style="fill:black;" />
	<polygon points="-25.57033461635402,188.2715007312782 -28.261948786496546,208.0895534398338 -18.017435592332458,209.22564855838337 -16.301489345443652,189.29939631472783" style="fill:black;" />
	<polygon points="-6.993372358858285,189.87125307178638 -7.7295168176854725,209.85770076355337 2.5770230400012175,209.98418738622036 2.331592274286816,189.98569334943747" style="fill:black;" />
</svg>